<?xml version="1.0" encoding="UTF-8"?>
<svg width="1000px" height="998px" viewBox="0 0 1000 998" version="1.1" xmlns="http://www.w3.org/2000/svg" xmlns:xlink="http://www.w3.org/1999/xlink">
    <!-- Generator: Sketch 56.3 (81716) - https://sketch.com -->
    <title>Icon</title>
    <desc>Created with Sketch.</desc>
    <g id="Page-1" stroke="none" stroke-width="1" fill="none" fill-rule="evenodd">
        <g id="Icon" transform="translate(0.000000, -2.000000)">
            <g transform="translate(0.000000, 2.000000)">
                <circle id="Oval" fill="#1E1E1E" cx="500" cy="500" r="500"></circle>
                <path d="M804,494 C804,326.105436 667.894564,190 500,190 C332.105436,190 196,326.105436 196,494" id="Oval" stroke="#FFFFFF" stroke-width="50"></path>
                <path d="M865,494.499316 C865,292.639618 701.583934,129 500,129 C298.416066,129 135,292.639618 135,494.499316" id="Oval" stroke="#FFFFFF" stroke-width="50"></path>
                <polyline id="Path-2" stroke="#FFFFFF" stroke-width="50" stroke-linecap="square" points="258 519 258 827.778404 503.5 885 749 827.778404 749 519"></polyline>
                <polyline id="Path-2" stroke="#FFFFFF" stroke-width="50" stroke-linecap="square" points="316 519 316 784.261016 504 827 692 784.261016 692 519"></polyline>
                <path d="M502.485993,655 C545.513133,655 626.295566,620.79261 545.513133,530.086512 C567.154947,398.42231 567.154947,418.101035 567.154947,398.42231 C567.154947,360.633712 536.471621,330 498.621821,330 C460.77202,330 430.088694,360.633712 430.088694,398.42231 C430.088694,409.444699 429.263084,393.508009 461.9234,530.086512 C380.319991,615.878309 461.9234,655 502.485993,655 Z" id="Oval" stroke="#FFFFFF" stroke-width="50"></path>
            </g>
        </g>
    </g>
</svg>